<?xml version="1.0" encoding="UTF-8" standalone="no"?>
<!-- Created with Inkscape (http://www.inkscape.org/) -->

<svg
   xmlns:dc="http://purl.org/dc/elements/1.1/"
   xmlns:cc="http://creativecommons.org/ns#"
   xmlns:rdf="http://www.w3.org/1999/02/22-rdf-syntax-ns#"
   xmlns:svg="http://www.w3.org/2000/svg"
   xmlns="http://www.w3.org/2000/svg"
   xmlns:sodipodi="http://sodipodi.sourceforge.net/DTD/sodipodi-0.dtd"
   xmlns:inkscape="http://www.inkscape.org/namespaces/inkscape"
   id="svg2"
   version="1.1"
   inkscape:version="0.48.5 r10040"
   width="750"
   height="750"
   xml:space="preserve"
   sodipodi:docname="vectorstock_3230139.ai"><metadata
     id="metadata8"><rdf:RDF><cc:Work
         rdf:about=""><dc:format>image/svg+xml</dc:format><dc:type
           rdf:resource="http://purl.org/dc/dcmitype/StillImage" /><dc:title></dc:title></cc:Work></rdf:RDF></metadata><defs
     id="defs6"><clipPath
       clipPathUnits="userSpaceOnUse"
       id="clipPath18"><path
         d="m 39.118,194.209 c 0,-5.476 119.454,-9.918 266.645,-9.918 l 0,0 c 147.356,0 266.776,4.442 266.776,9.918 l 0,0 c 0,5.482 -119.42,9.957 -266.776,9.957 l 0,0 c -147.191,0 -266.645,-4.475 -266.645,-9.957"
         id="path20" /></clipPath><radialGradient
       fx="0"
       fy="0"
       cx="0"
       cy="0"
       r="1"
       gradientUnits="userSpaceOnUse"
       gradientTransform="matrix(266.7056,0,0,-9.9376707,305.82889,194.2285)"
       spreadMethod="pad"
       id="radialGradient26"><stop
         style="stop-opacity:1;stop-color:#c8c8c8"
         offset="0"
         id="stop28" /><stop
         style="stop-opacity:1;stop-color:#ffffff"
         offset="1"
         id="stop30" /></radialGradient><clipPath
       clipPathUnits="userSpaceOnUse"
       id="clipPath38"><path
         d="M 0,600 600,600 600,0 0,0 0,600 z"
         id="path40" /></clipPath></defs><sodipodi:namedview
     pagecolor="#ffffff"
     bordercolor="#666666"
     borderopacity="1"
     objecttolerance="10"
     gridtolerance="10"
     guidetolerance="10"
     inkscape:pageopacity="0"
     inkscape:pageshadow="2"
     inkscape:window-width="1920"
     inkscape:window-height="1056"
     id="namedview4"
     showgrid="false"
     inkscape:zoom="0.62933333"
     inkscape:cx="386.77498"
     inkscape:cy="501.73034"
     inkscape:window-x="0"
     inkscape:window-y="0"
     inkscape:window-maximized="1"
     inkscape:current-layer="g10" /><g
     id="g10"
     inkscape:groupmode="layer"
     inkscape:label="vectorstock_3230139"
     transform="matrix(1.25,0,0,-1.25,0,750)"><path
       d="m 0,0 600,0 0,599.999 -600,0 L 0,0 z"
       style="fill:#ffffff;fill-opacity:1;fill-rule:nonzero;stroke:none"
       id="path12" /><g
       id="g14"><g
         id="g16"
         clip-path="url(#clipPath18)"><g
           id="g22"><g
             id="g24"><path
               d="m 39.118,194.209 c 0,-5.476 119.454,-9.918 266.645,-9.918 l 0,0 c 147.356,0 266.776,4.442 266.776,9.918 l 0,0 c 0,5.482 -119.42,9.957 -266.776,9.957 l 0,0 c -147.191,0 -266.645,-4.475 -266.645,-9.957"
               style="fill:url(#radialGradient26);stroke:none"
               id="path32" /></g></g></g></g><g
       id="g34"><g
         id="g36"
         clip-path="url(#clipPath38)"><g
           id="g42"
           transform="translate(477.2246,347.7231)"><path
             d="m 0,0 c 0,1.876 -1.795,3.526 -4.545,4.617 -0.633,1.762 -3.734,3.104 -7.482,3.104 -3.754,0 -6.854,-1.342 -7.483,-3.104 -2.75,-1.091 -4.545,-2.741 -4.545,-4.617 0,-1.271 0.815,-2.446 2.192,-3.411 l 0,-37.138 -306.19,0 0,93.436 c 1.371,0.964 2.183,2.135 2.183,3.404 0,1.876 -1.795,3.527 -4.544,4.617 -0.633,1.763 -3.735,3.104 -7.483,3.104 -3.755,0 -6.853,-1.341 -7.482,-3.104 -2.75,-1.09 -4.545,-2.741 -4.545,-4.617 0,-1.127 0.647,-2.176 1.751,-3.074 l 0,-169.95 20.12,0 0,26.713 306.19,0 0,-26.713 20.119,0 0,113.667 C -0.645,-2.172 0,-1.124 0,0"
             style="fill:#000000;fill-opacity:1;fill-rule:nonzero;stroke:none"
             id="path44" /></g><g
           id="g46"
           transform="translate(232.6509,369.4077)"><path
             d="m 0,0 c -6.679,0 -12.093,-4.897 -12.093,-10.939 l 0,-26.771 -42.218,0 c -6.072,0 -10.995,-4.922 -10.995,-10.993 0,-6.074 4.923,-10.996 10.995,-10.996 l 55.412,0 c 5.632,0 10.269,4.239 10.91,9.701 0.007,0.047 0.017,0.094 0.023,0.139 0.018,0.188 0.02,0.383 0.03,0.572 0.01,0.176 0.031,0.348 0.031,0.528 l 0,37.82 C 12.095,-4.897 6.681,0 0,0"
             style="fill:#000000;fill-opacity:1;fill-rule:nonzero;stroke:none"
             id="path48" /></g><g
           id="g50"
           transform="translate(191.5337,334.0601)"><path
             d="M 0,0 C 13.882,0 25.137,11.253 25.137,25.138 25.137,39.021 13.882,50.272 0,50.272 -13.883,50.272 -25.137,39.021 -25.137,25.138 -25.137,11.253 -13.883,0 0,0"
             style="fill:#000000;fill-opacity:1;fill-rule:nonzero;stroke:none"
             id="path52" /></g><g
           id="g54"
           transform="translate(417.3555,369.6274)"><path
             d="m 0,0 -163.594,0 c -3.645,0 -6.598,-2.953 -6.598,-6.596 l 0,-53.322 176.788,0 0,53.322 C 6.596,-2.953 3.642,0 0,0"
             style="fill:#000000;fill-opacity:1;fill-rule:nonzero;stroke:none"
             id="path56" /></g><g
           id="g58"
           transform="translate(188.5718,397.0454)"><path
             d="M 0,0 3.623,11.096 3.609,11.146 -2.164,9.469 -2.522,10.705 5.18,12.942 5.441,12.045 1.824,0.988 1.838,0.937 8.221,2.793 8.58,1.557 0.25,-0.863 0,0 z"
             style="fill:#000000;fill-opacity:1;fill-rule:nonzero;stroke:none"
             id="path60" /></g><g
           id="g62"
           transform="translate(200.3569,409.1763)"><path
             d="M 0,0 0.643,9.713 0.621,9.75 -3.699,7.207 -4.244,8.131 1.52,11.525 1.915,10.853 1.27,1.176 1.292,1.137 6.066,3.95 6.611,3.025 0.379,-0.646 0,0 z"
             style="fill:#000000;fill-opacity:1;fill-rule:nonzero;stroke:none"
             id="path64" /></g><g
           id="g66"
           transform="translate(209.7231,422.1499)"><path
             d="M 0,0 6.196,4.89 6.208,4.923 2.329,6.142 2.59,6.972 7.766,5.347 7.575,4.743 1.397,-0.126 1.388,-0.161 5.675,-1.507 5.414,-2.339 -0.181,-0.58 0,0 z"
             style="fill:#000000;fill-opacity:1;fill-rule:nonzero;stroke:none"
             id="path68" /></g></g></g></g></svg>